<svg xmlns="http://www.w3.org/2000/svg" viewBox="0 0 929.77 1240.1"><title>template</title><g id="Layer_2" data-name="Layer 2"><path d="M578.13,1229.11l-26.84-26.53L531,1229.11l5.17,13.76L507,1232.22l8.32,21.62-24.61-3.94,33.09,39.66h37.08l17.22-24-23.35-36.47Zm-26-17.22,8.57,10.19H544.67Zm-13.08,38.49,3.15,7.53c-.15,0-16.79-2.27-16.79-2.27l-4.65-10.28Zm-12.3,32.88-18.26-24.06,36.42,4.88,7.76,19.18Zm44.07-17.06-11.07,14.89-21.06-52H547Z" transform="translate(-74.96 -75.13)"/></g><g id="Layer_3" data-name="Layer 3"><polygon points="399.93 1189.92 399.93 1199.81 23.09 1199.81 0 1177.02 0 22.87 23.09 0 906.91 0 929.77 22.98 929.77 1176.91 907.13 1199.81 530.15 1199.81 530.15 1190.5 904.19 1190.5 920.33 1174.37 920.33 25.93 904.22 9.82 26.04 9.82 10.12 25.74 10.12 1173.85 26.23 1189.96 399.93 1189.92"/><path d="M450.46,1295.8v.7a3.64,3.64,0,0,1,2.32-.7h1.33a4.87,4.87,0,0,1,3.49,1.1,4.73,4.73,0,0,1,1.15,3.54v9.86h-2.46v-10.44a1.86,1.86,0,0,0-.51-1.38,1.9,1.9,0,0,0-1.38-.5h-1.91a1.84,1.84,0,0,0-1.42.5,1.6,1.6,0,0,0-.47,1.09v10.73h-2.46v-14.5Z" transform="translate(-74.96 -75.13)"/><path d="M473.29,1309.2a5.39,5.39,0,0,1-3.72,1.1h-1a5.43,5.43,0,0,1-3.73-1.1,4.6,4.6,0,0,1-1.2-3.54v-5.22a4.62,4.62,0,0,1,1.2-3.54,5.43,5.43,0,0,1,3.73-1.1h1a5.39,5.39,0,0,1,3.72,1.1,4.58,4.58,0,0,1,1.21,3.54v5.22A4.57,4.57,0,0,1,473.29,1309.2Zm-1.81-10.73a2.36,2.36,0,0,0-1.62-.49h-1.54a2.33,2.33,0,0,0-1.62.49,1.76,1.76,0,0,0-.55,1.39v6.38a1.76,1.76,0,0,0,.55,1.39,2.33,2.33,0,0,0,1.62.5h1.54a2.36,2.36,0,0,0,1.62-.5,1.76,1.76,0,0,0,.55-1.39v-6.38A1.76,1.76,0,0,0,471.48,1298.47Z" transform="translate(-74.96 -75.13)"/><path d="M478.79,1295.8h2.67l3.39,12.5,3.31-12.5h2.58l-4.18,14.5H483Z" transform="translate(-74.96 -75.13)"/><path d="M500.92,1310.3h-1a4.91,4.91,0,0,1-3.5-1.1,4.75,4.75,0,0,1-1.14-3.54v-9.86h2.46v10.44a1.76,1.76,0,0,0,1.89,1.89h1.57a1.83,1.83,0,0,0,1.37-.47,1.74,1.74,0,0,0,.51-1V1295.8h2.47v14.5h-2.32v-.67A3.94,3.94,0,0,1,500.92,1310.3Z" transform="translate(-74.96 -75.13)"/><path d="M519.37,1309.4a5,5,0,0,1-3.23.9h-4.32v-2.17h4.61a1.85,1.85,0,0,0,1.19-.34,1.17,1.17,0,0,0,.4-1v-1.54c0-.87-.41-1.3-1.24-1.3h-1.07a4.49,4.49,0,0,1-3-.89,3.57,3.57,0,0,1-1-2.79v-.84a3.31,3.31,0,0,1,1.11-2.8,5.2,5.2,0,0,1,3.24-.86h3.89V1298h-4.18a1.88,1.88,0,0,0-1.16.33,1.15,1.15,0,0,0-.43,1v1a1.19,1.19,0,0,0,.39,1,1.56,1.56,0,0,0,1,.32h1a4.21,4.21,0,0,1,3,.94,3.66,3.66,0,0,1,1,2.8v1.31A3.28,3.28,0,0,1,519.37,1309.4Z" transform="translate(-74.96 -75.13)"/><path d="M533.19,1307.4v2.9h-2.9v-2.9Z" transform="translate(-74.96 -75.13)"/><path d="M548.13,1310.3h-1.19a5.39,5.39,0,0,1-3.74-1.09,4.58,4.58,0,0,1-1.19-3.55v-5.22a4.62,4.62,0,0,1,1.2-3.54,5.41,5.41,0,0,1,3.73-1.1h5.83v19.43H550.3v-5.51A3.89,3.89,0,0,1,548.13,1310.3Zm1.71-2.68a1.58,1.58,0,0,0,.46-1.09V1298h-3.65a2.37,2.37,0,0,0-1.63.49,1.79,1.79,0,0,0-.55,1.39v6.38a1.79,1.79,0,0,0,.55,1.39,2.37,2.37,0,0,0,1.63.5h1.77A1.84,1.84,0,0,0,549.84,1307.62Z" transform="translate(-74.96 -75.13)"/><path d="M563.55,1310.3h-1a4.91,4.91,0,0,1-3.5-1.1,4.75,4.75,0,0,1-1.14-3.54v-9.86h2.46v10.44a1.76,1.76,0,0,0,1.89,1.89h1.56a1.84,1.84,0,0,0,1.38-.47,1.74,1.74,0,0,0,.51-1V1295.8h2.46v14.5h-2.32v-.67A3.9,3.9,0,0,1,563.55,1310.3Z" transform="translate(-74.96 -75.13)"/><path d="M582.91,1309.2a5.39,5.39,0,0,1-3.72,1.1h-1a5.41,5.41,0,0,1-3.73-1.1,4.6,4.6,0,0,1-1.2-3.54v-5.22a4.62,4.62,0,0,1,1.2-3.54,5.41,5.41,0,0,1,3.73-1.1h1a5.39,5.39,0,0,1,3.72,1.1,4.62,4.62,0,0,1,1.21,3.54v5.22A4.6,4.6,0,0,1,582.91,1309.2Zm-1.81-10.73a2.36,2.36,0,0,0-1.62-.49h-1.54a2.37,2.37,0,0,0-1.63.49,1.79,1.79,0,0,0-.55,1.39v6.38a1.79,1.79,0,0,0,.55,1.39,2.37,2.37,0,0,0,1.63.5h1.54a2.36,2.36,0,0,0,1.62-.5,1.76,1.76,0,0,0,.55-1.39v-6.38A1.76,1.76,0,0,0,581.1,1298.47Z" transform="translate(-74.96 -75.13)"/><path d="M593.19,1309.34a3.83,3.83,0,0,1-.78-2.52V1298h-2.76v-2.18h2.76v-3.48h2.47v3.48h4.23V1298h-4.23v9a1.13,1.13,0,0,0,.31.9,1.58,1.58,0,0,0,1,.26h2.93v2.17h-3.65A2.76,2.76,0,0,1,593.19,1309.34Z" transform="translate(-74.96 -75.13)"/><path d="M606.13,1309.21a4.58,4.58,0,0,1-1.19-3.55v-5.22a3.93,3.93,0,0,1,4.64-4.64h1.36a4,4,0,0,1,3.12,1.15,4.79,4.79,0,0,1,1.06,3.35v3.77H607.4v2.17a1.79,1.79,0,0,0,.55,1.39,2.37,2.37,0,0,0,1.63.5h4.61v2.17h-4.32A5.39,5.39,0,0,1,606.13,1309.21Zm6.58-9.49A1.68,1.68,0,0,0,611,1298h-1.68a1.92,1.92,0,0,0-1.47.47,2.08,2.08,0,0,0-.42,1.41v2h5.31Z" transform="translate(-74.96 -75.13)"/><path d="M629,1309.4a5,5,0,0,1-3.23.9h-4.32v-2.17h4.61a1.85,1.85,0,0,0,1.19-.34,1.18,1.18,0,0,0,.41-1v-1.54c0-.87-.42-1.3-1.25-1.3h-1.07a4.49,4.49,0,0,1-3-.89,3.57,3.57,0,0,1-1-2.79v-.84a3.31,3.31,0,0,1,1.11-2.8,5.2,5.2,0,0,1,3.24-.86h3.89V1298h-4.18a1.88,1.88,0,0,0-1.16.33,1.15,1.15,0,0,0-.43,1v1a1.19,1.19,0,0,0,.39,1,1.56,1.56,0,0,0,1,.32h1a4.17,4.17,0,0,1,3,.94,3.63,3.63,0,0,1,1,2.8v1.31A3.28,3.28,0,0,1,629,1309.4Z" transform="translate(-74.96 -75.13)"/></g></svg>