<svg xmlns="http://www.w3.org/2000/svg" viewBox="0 0 929.77 1228.43"><title>template</title><g id="Layer_2" data-name="Layer 2"><path d="M578.13,1243.11l-26.84-26.53L531,1243.11l5.17,13.76L507,1246.22l8.32,21.62-24.61-3.94,33.09,39.66h37.08l17.22-24-23.35-36.47Zm-26-17.22,8.57,10.19H544.67Zm-13.08,38.49,3.15,7.53c-.15,0-16.79-2.27-16.79-2.27l-4.65-10.28Zm-12.3,32.88-18.26-24.06,36.42,4.88,7.76,19.18Zm44.07-17.06-11.07,14.89-21.06-52H547Z" transform="translate(-74.96 -75.13)"/></g><g id="Layer_3" data-name="Layer 3"><polygon points="399.93 1189.92 399.93 1199.81 23.09 1199.81 0 1177.02 0 22.87 23.09 0 906.91 0 929.77 22.98 929.77 1176.91 907.13 1199.81 530.15 1199.81 530.15 1190.5 904.19 1190.5 920.33 1174.37 920.33 25.93 904.22 9.82 26.04 9.82 10.12 25.74 10.12 1173.85 26.23 1189.96 399.93 1189.92"/><path d="M405.67,1281.74v.69a3.72,3.72,0,0,1,2.32-.69h1.34a4.89,4.89,0,0,1,3.49,1.1,4.75,4.75,0,0,1,1.15,3.54v9.86H411.5V1285.8a1.86,1.86,0,0,0-.51-1.38,1.83,1.83,0,0,0-1.37-.51H407.7a1.82,1.82,0,0,0-1.42.51,1.58,1.58,0,0,0-.46,1.09v10.73h-2.47v-14.5Z" transform="translate(-74.96 -75.13)"/><path d="M428.51,1295.14a5.4,5.4,0,0,1-3.73,1.1h-.95a5.4,5.4,0,0,1-3.73-1.1,4.62,4.62,0,0,1-1.2-3.54v-5.22a4.6,4.6,0,0,1,1.2-3.54,5.4,5.4,0,0,1,3.73-1.1h.95a5.4,5.4,0,0,1,3.73,1.1,4.6,4.6,0,0,1,1.2,3.54v5.22A4.62,4.62,0,0,1,428.51,1295.14Zm-1.81-10.73a2.37,2.37,0,0,0-1.63-.5h-1.53a2.37,2.37,0,0,0-1.63.5,1.79,1.79,0,0,0-.55,1.39v6.38a1.79,1.79,0,0,0,.55,1.39,2.37,2.37,0,0,0,1.63.49h1.53a2.37,2.37,0,0,0,1.63-.49,1.79,1.79,0,0,0,.55-1.39v-6.38A1.79,1.79,0,0,0,426.7,1284.41Z" transform="translate(-74.96 -75.13)"/><path d="M434,1281.74h2.66l3.4,12.5,3.3-12.5H446l-4.17,14.5h-3.57Z" transform="translate(-74.96 -75.13)"/><path d="M456.13,1296.24h-1a4.91,4.91,0,0,1-3.5-1.1,4.76,4.76,0,0,1-1.14-3.54v-9.86H453v10.44a1.86,1.86,0,0,0,.51,1.38,1.9,1.9,0,0,0,1.38.5h1.56a1.84,1.84,0,0,0,1.38-.46,1.74,1.74,0,0,0,.51-1v-10.82h2.46v14.5h-2.32v-.67A3.92,3.92,0,0,1,456.13,1296.24Z" transform="translate(-74.96 -75.13)"/><path d="M474.59,1295.34a5,5,0,0,1-3.23.9H467v-2.18h4.61a1.87,1.87,0,0,0,1.19-.33,1.18,1.18,0,0,0,.4-1v-1.54c0-.87-.41-1.3-1.25-1.3h-1.07a4.47,4.47,0,0,1-3-.89,3.54,3.54,0,0,1-1-2.8v-.84a3.35,3.35,0,0,1,1.1-2.8,5.25,5.25,0,0,1,3.25-.85h3.89v2.17H471a1.82,1.82,0,0,0-1.16.34,1.13,1.13,0,0,0-.43,1v1a1.2,1.2,0,0,0,.39,1,1.54,1.54,0,0,0,1,.32h1a4.19,4.19,0,0,1,3,.94,3.63,3.63,0,0,1,1,2.8v1.3A3.31,3.31,0,0,1,474.59,1295.34Z" transform="translate(-74.96 -75.13)"/><path d="M613,1296.24h-1.18a5.42,5.42,0,0,1-3.75-1.09,4.62,4.62,0,0,1-1.19-3.55v-5.22a4.6,4.6,0,0,1,1.21-3.54,5.4,5.4,0,0,1,3.73-1.1h5.82v19.43h-2.46v-5.51A4,4,0,0,1,613,1296.24Zm1.71-2.68a1.6,1.6,0,0,0,.47-1.09v-8.56h-3.65a2.37,2.37,0,0,0-1.63.5,1.76,1.76,0,0,0-.55,1.39v6.38a1.76,1.76,0,0,0,.55,1.39,2.37,2.37,0,0,0,1.63.49h1.76A1.84,1.84,0,0,0,614.67,1293.56Z" transform="translate(-74.96 -75.13)"/><path d="M628.39,1296.24h-1a4.91,4.91,0,0,1-3.5-1.1,4.76,4.76,0,0,1-1.14-3.54v-9.86h2.46v10.44a1.86,1.86,0,0,0,.51,1.38,1.9,1.9,0,0,0,1.38.5h1.56a1.84,1.84,0,0,0,1.38-.46,1.74,1.74,0,0,0,.51-1v-10.82H633v14.5h-2.32v-.67A3.92,3.92,0,0,1,628.39,1296.24Z" transform="translate(-74.96 -75.13)"/><path d="M647.75,1295.14a5.4,5.4,0,0,1-3.73,1.1h-.95a5.4,5.4,0,0,1-3.73-1.1,4.62,4.62,0,0,1-1.2-3.54v-5.22a4.6,4.6,0,0,1,1.2-3.54,5.4,5.4,0,0,1,3.73-1.1H644a5.4,5.4,0,0,1,3.73,1.1,4.6,4.6,0,0,1,1.2,3.54v5.22A4.62,4.62,0,0,1,647.75,1295.14Zm-1.81-10.73a2.37,2.37,0,0,0-1.63-.5h-1.53a2.37,2.37,0,0,0-1.63.5,1.79,1.79,0,0,0-.55,1.39v6.38a1.79,1.79,0,0,0,.55,1.39,2.37,2.37,0,0,0,1.63.49h1.53a2.37,2.37,0,0,0,1.63-.49,1.79,1.79,0,0,0,.55-1.39v-6.38A1.79,1.79,0,0,0,645.94,1284.41Z" transform="translate(-74.96 -75.13)"/><path d="M658,1295.28a3.87,3.87,0,0,1-.78-2.52v-8.85h-2.76v-2.17h2.76v-3.48h2.46v3.48H664v2.17h-4.24v9a1.1,1.1,0,0,0,.32.9,1.5,1.5,0,0,0,1,.26H664v2.18h-3.66A2.75,2.75,0,0,1,658,1295.28Z" transform="translate(-74.96 -75.13)"/><path d="M671,1295.15a4.62,4.62,0,0,1-1.18-3.55v-5.22a3.93,3.93,0,0,1,4.64-4.64h1.36a4.06,4.06,0,0,1,3.12,1.14,4.81,4.81,0,0,1,1.06,3.35V1290h-7.72v2.18a1.76,1.76,0,0,0,.55,1.39,2.37,2.37,0,0,0,1.63.49H679v2.18h-4.32A5.42,5.42,0,0,1,671,1295.15Zm6.59-9.5a1.71,1.71,0,0,0-1.74-1.74h-1.68a1.88,1.88,0,0,0-1.47.48,2.08,2.08,0,0,0-.42,1.41v2h5.31Z" transform="translate(-74.96 -75.13)"/><path d="M693.83,1295.34a5,5,0,0,1-3.23.9h-4.32v-2.18h4.61a1.85,1.85,0,0,0,1.19-.33,1.18,1.18,0,0,0,.4-1v-1.54c0-.87-.41-1.3-1.24-1.3h-1.08a4.47,4.47,0,0,1-3-.89,3.58,3.58,0,0,1-1-2.8v-.84a3.35,3.35,0,0,1,1.1-2.8,5.25,5.25,0,0,1,3.25-.85h3.89v2.17h-4.18a1.82,1.82,0,0,0-1.16.34,1.13,1.13,0,0,0-.43,1v1a1.2,1.2,0,0,0,.39,1,1.54,1.54,0,0,0,1,.32h1a4.18,4.18,0,0,1,3,.94,3.63,3.63,0,0,1,1,2.8v1.3A3.28,3.28,0,0,1,693.83,1295.34Z" transform="translate(-74.96 -75.13)"/></g></svg>